<?xml version="1.0" encoding="UTF-8"?>
<svg id="_图层_1" data-name="图层_1" xmlns="http://www.w3.org/2000/svg" version="1.1" viewBox="0 0 1100 250">
  <!-- Generator: Adobe Illustrator 29.0.1, SVG Export Plug-In . SVG Version: 2.1.0 Build 192)  -->
  <defs>
    <style>
      .st0 {
        fill: #231815;
        fill-rule: evenodd;
      }
    </style>
  </defs>
  <path class="st0" d="M237.5,24.08s-7.21,7.21-9.4,9.09c-1.88,1.88-3.13,2.51-3.13,2.51,0,0,4.7,4.7,9.09,7.21,4.7,2.82,5.01,2.51,5.01,4.7s-1.88,15.04-3.45,23.82c-1.25,8.46-3.76,13.48-5.33,20.37-1.25,7.21,1.25,15.36,1.25,15.36h-26.32s-9.09,2.82-9.71,5.64c-.63,2.82,2.19,8.46,5.95,12.22,3.45,3.76,6.58,10.03,7.21,13.16.31,2.82.94,24.76.94,24.76,0,0,3.45-1.25,7.52,1.25,4.07,2.51,19.12,4.39,30.08,3.13,10.97-1.25,19.43-7.21,21.62-13.16,2.19-5.95,3.76-18.8,3.76-24.44s2.19-9.71,5.95-10.34c3.76-.63,10.34-1.57,13.48-1.57s5.01-4.7,5.01-4.7c0,0-1.25-1.88-5.33-5.01-4.07-3.13-9.4-5.64-13.16-6.89-3.76-1.25-10.34-2.19-15.36-2.19s-11.28,0-13.48-2.51c-2.19-2.51-3.13-9.4-.94-14.42,2.19-5.01,8.77-19.12,10.97-24.44,2.19-5.33,3.13-12.54,2.51-18.8-.63-6.27-7.21-9.71-10.34-12.54-3.13-2.51-14.42-2.19-14.42-2.19h0ZM219.95,122.79c0,.31,7.83-2.82,12.85-2.82s8.77,0,10.97.94c2.51.63,5.64.63,5.64,3.13,0,2.19.94,4.7.31,8.15-.31,3.45-.94,5.95-2.19,8.77-.94,2.82-3.45,7.52-7.83,10.03-4.7,2.19-8.46.31-12.22-3.13-3.45-3.45-6.89-7.83-8.77-11.6-1.88-4.07-1.57-5.95-1.57-8.77,0-2.51,2.82-5.01,2.82-4.7Z"/>
  <path class="st0" d="M384.77,27.64c-3.76,6.89-7.52,16.3-7.52,22.56s0,12.85-.63,16.92c-.63,4.07-2.51,6.58-2.51,6.58,0,0-6.89,3.76-11.91,5.95-4.7,2.51-15.98,8.46-20.68,15.35-5.01,6.89-6.58,15.36-1.25,15.04,5.33-.31,7.83-1.88,11.6-5.01,4.07-3.13,10.34-3.45,10.97-.63.63,2.82-7.83,16.3-9.4,20.68-1.57,4.39-6.58,14.1-6.89,18.49-.63,4.07,1.57,10.97,1.57,12.54s1.25,4.07,3.13,4.39c1.88.31,5.01-.31,5.01-.31,0,0,3.76-4.7,6.89-7.83,3.13-3.45,6.89-5.95,9.09-8.15,1.88-1.88,5.33-3.13,7.52-3.13,1.88,0,3.45,5.95,3.45,8.15s.31,12.85,0,14.1c-.31.94-1.57.94-3.13,1.88-1.88.63-2.82,2.19-3.76,2.19-.94-.31-1.88-.31-1.88-.31,0,0,.94,3.13,3.76,5.64,2.82,2.82,5.01,6.58,8.77,6.27,4.07-.31,3.13-1.88,4.7-3.13,1.57-1.57,3.76-4.07,3.76-5.64,0-1.25-.94-16.61-1.57-21-.63-4.7-.63-9.09-1.25-14.73-.63-5.95-.31-10.66-.31-10.66,0,0,9.4-12.22,13.48-19.12,4.07-6.89,4.7-9.71,5.95-13.16.94-3.45,3.76-6.27,3.76-10.03s.94-6.58.94-6.58c0,0-3.45,1.25-5.64,5.01-2.19,3.76-6.89,11.91-9.09,15.04-1.88,3.13-5.33,8.15-7.21,9.09-2.19.63-5.01.31-7.52-1.25-2.51-1.25-2.51-3.45-2.51-3.45,0,0-1.25-2.82.63-5.33,1.88-2.19,1.88-4.07,1.88-6.58,0-2.19-.31-9.4-1.88-10.97-1.88-1.25-1.57-4.7-1.57-6.58s-.31-14.1.94-16.92c1.25-2.51,10.65-13.79,14.73-17.24,4.07-3.45,5.95-8.15,7.21-12.85,3.13-12.85-5.33-13.79-11.91-8.15-4.39,3.45-8.15,10.03-9.71,12.85h0ZM458.1,9.78l.94,36.35-5.01,3.76s-12.53.63-16.61,1.57c-3.76.94-6.58.94-7.83,5.01-.94,3.76,0,9.71-1.25,12.54-1.57,2.82-4.39,11.28-3.13,15.98,1.57,5.01,8.46,4.07,8.46,7.52s-6.58,11.6-8.77,15.36c-1.88,4.07-7.52,4.39-5.33,14.1,2.19,9.4,9.09,6.89,11.6,7.21,2.82.31,17.86-2.82,18.8,1.25.63,4.39,4.7,12.85,4.07,18.8-.31,5.64.63,19.43,2.82,27.26,1.88,7.83,4.39,17.24,6.27,20.37,2.19,3.45,1.57,5.01,3.13,5.01s2.19-5.01,2.19-6.58c0-1.88,1.25-20.68,1.88-25.38.31-4.7,1.25-12.22,3.13-15.98,1.57-3.45,5.01-6.58,5.95-8.15.94-1.57,1.88-2.51,1.88-2.51,0,0-.94-15.36-.63-16.92.31-1.57-1.57-7.83,0-12.54,1.57-4.39,5.64-9.71,8.46-13.48,3.13-3.76,4.07-6.27,4.07-10.03,0-4.07.31-5.01-1.57-10.97-2.19-5.95-7.21-13.16-9.4-18.49-1.88-5.33-3.76-9.71-4.7-14.73-.94-5.01-1.88-17.55-1.88-21v-6.89s-7.52-4.7-10.97-7.83c-3.13-2.82-6.58-.63-6.58-.63h0ZM443.37,71.83s2.19-2.51,5.95-1.88c6.58.63,7.21,10.65-1.88,11.28-2.51.31-3.45-.94-5.01-3.76-1.57-3.13.94-5.64.94-5.64h0ZM441.81,99.41c2.82-3.45,6.27-6.27,10.65-.94,2.19,2.82,1.57,2.51.94,5.33-.31,2.82-2.19,5.95-4.39,6.27-2.51.63-7.83,2.82-9.09-1.57-1.57-4.7,1.88-9.09,1.88-9.09Z"/>
  <path class="st0" d="M582.78,21.71s-5.64,4.07-7.52,10.97c-1.88,6.89-3.13,20.06-4.39,23.5-1.57,3.45-4.07,3.45-8.15,2.82-4.07-.31-11.6,0-10.97,3.13.31,3.13,4.07,2.82,6.58,6.89,2.51,4.07,9.09,14.42,4.7,26.95-4.7,12.53-5.64,17.55-10.66,21.94-5.01,4.39-10.03,5.01-13.47,6.89-3.13,1.57-5.33.31-5.33,3.45s1.57,15.67,8.46,18.49c6.89,2.82,7.52-.63,11.6-2.51,3.76-1.88,7.21-3.45,7.21-3.45,0,0,5.01,2.82,8.15,4.07,3.45,1.57,5.01.63,7.21-1.25,2.19-2.19,2.82-12.54,2.82-16.3v-11.91s3.76-5.33,5.95-8.77c2.19-3.76,2.19-2.82,6.58-7.21,4.39-4.39,6.89-8.77,6.89-8.77l.31,13.16s-3.45,5.95,2.51,8.15c5.64,2.51,11.91,6.89,15.36,9.09,3.45,1.88,6.58,4.07,4.39,6.89-1.88,2.82-10.97,4.39-13.79,2.82-2.51-1.88-5.64-5.01-8.77-8.15-3.13-3.13-4.7-9.09-5.01-12.54-.31-3.45-1.88-3.45-1.88-3.45,0,0-4.07,3.13-4.7,6.27-.31,2.82-2.82,9.71-2.82,16.3s-1.88,13.79,1.25,16.3c3.13,2.51,16.92,4.39,23.5,4.39s16.3-1.25,21.31-3.13c4.7-2.19,7.52-2.19,10.34-2.19s3.76,0,4.7,2.51c.63,2.51,3.13,5.01,6.89,10.03,3.45,5.01,7.21,6.27,11.91,6.89,5.01.63,22.56.31,29.77-.31,6.89-.63,12.53-1.57,16.61-3.45,4.07-1.57,9.09-5.01,2.82-6.27-3.45-.94-9.4-2.51-14.1-4.39-7.52-2.82-20.06-12.85-26.64-17.24-6.58-4.07-11.91-10.65-11.91-10.65,0,0-.31-3.13,1.25-5.01,1.88-1.88,3.45-12.22,3.45-20.06s.63-14.42.31-17.55c-.31-3.13-1.57-6.58-3.13-8.15-1.88-1.57-3.13-.63-5.01-.63-1.57,0-7.83,2.82-9.71,3.45-2.19.63-4.39,0-5.01-1.57-.63-1.25-.94-2.82-.31-4.39.63-1.57,4.39-4.07,10.34-7.52,6.27-3.13,14.1-3.76,16.92-9.4,2.82-5.64,5.01-12.85,5.33-17.24.31-4.39-.31-7.52-.31-9.09s-2.51-1.57-2.51-1.57c0,0-2.82.94-3.76,3.13-1.25,2.19-7.52,8.46-9.4,10.66-1.57,2.51-5.01,5.01-7.83,5.01s-5.01.63-5.95-.94c-.94-1.88-.94-11.91-.94-15.98s.31-8.15-.94-12.85c-1.57-4.7-2.82-6.89-4.39-7.52-1.57-.63-4.39,1.88-4.39,1.88,0,0-1.88,5.01-2.82,8.46-.63,3.13-.94,11.28-.94,15.36,0,4.39-.94,15.36-.94,17.55,0,1.88-4.07,3.45-6.58,4.7-2.51,1.57-8.15,1.88-13.79,4.39-5.95,2.51-11.28,5.33-13.47,10.03-2.19,4.7-8.46,12.54-8.46,12.54,0,0-5.64,1.25-5.95-1.57-.31-3.13,1.57-9.71,5.01-13.48,3.76-3.76,7.84-10.03,9.4-16.3s2.19-10.65,1.88-14.73c-.31-4.07-.94-5.33-6.89-9.71-5.95-4.39-8.15-1.88-8.15-1.88h0ZM605.34,69.65s2.51-.94,4.7.94c1.88,1.88.63-.31,2.51,1.57,1.57,1.88,3.45.94,4.7,1.57,1.57.63,1.88.94,1.88,3.13,0,1.88-.63,7.21-2.19,8.77-1.25,1.25-5.01,1.57-6.58.63-1.25-1.25-5.95-.31-7.21-.31-1.57,0-1.25-4.07-.63-6.27.63-2.19,0-3.13,1.57-5.01,1.25-2.19,1.25-5.01,1.25-5.01h0ZM637.62,99.42s1.88-1.57,5.33-3.76c3.13-2.51,5.64-3.13,5.64-.31s-.31,5.95-.31,8.77c-.31,2.82-3.13,7.83-5.64,7.83-2.82,0-4.7-.63-5.95-2.19-1.57-1.88-1.25-5.01-.63-6.89.63-1.88,1.57-3.45,1.57-3.45Z"/>
  <path class="st0" d="M768.48,87.5s20.06.63,23.19.63,9.4-5.01,10.03-10.97c.63-6.27.31-30.71.63-35.41.31-4.7-.94-9.4,3.76-15.04,4.7-5.33,9.71-8.77,13.16-6.27,3.45,2.51,10.66,11.28,11.91,13.48,1.25,1.88,2.51,1.25,2.82,3.13.31,1.88-.63,13.48-1.25,18.8-.94,5.64-1.25,15.98-.94,19.12.31,3.13,3.13,3.13,5.95.94,3.13-2.51,5.01-7.52,12.85-9.4,7.83-2.19,16.61-.31,21.62,1.57,5.01,1.57,6.89,5.33,2.51,10.03-4.39,4.7-9.71,5.95-14.73,6.27-5.01.31-13.48,2.19-17.55,4.07-4.07,1.57-10.03,5.33-11.28,6.89-1.25,1.57-1.88,2.19-1.88,7.83s-1.57,16.92-7.52,25.7c-5.95,8.77-19.12,16.92-27.26,19.74-8.46,2.82-17.24,3.45-19.43,1.88-2.19-1.88-3.13-8.77-2.82-10.97s3.13-5.01,6.89-9.09c3.76-4.07,6.89-5.95,7.83-7.84,1.25-1.57,2.82-3.13.94-4.7-1.88-1.88-6.89-4.39-11.91-4.39-4.7,0-10.97-1.88-15.36-4.7-4.07-2.82-4.07-8.15-1.57-13.16,2.51-5.01,9.4-8.15,9.4-8.15h0ZM828.65,129.8s-1.88,3.13-1.88,4.7.94,3.45,3.45,5.95c2.82,2.19,8.46,3.76,8.46,3.76,0,0,1.57.94,5.01,4.39,3.13,3.13,8.46,7.52,11.6,10.34,2.82,2.51,9.09.94,13.16.94s7.21.63,7.21-2.82c0-3.13-3.76-14.42-7.52-18.8-3.45-4.7-12.22-7.83-18.49-9.09-6.27-1.25-21,.63-21,.63Z"/>
  <path class="st0" d="M964.84,55.58s-2.51-17.24-3.45-22.56c-.63-5.01-5.33-13.79-10.97-14.1-5.33-.63-10.03,3.45-11.6,8.15-1.25,4.7.31,12.53,3.45,18.8,3.45,6.27,8.15,5.64,10.03,9.4,1.88,3.76,2.82,3.45,5.64,3.45,3.13,0,6.89-3.13,6.89-3.13h0ZM976.75,23.62s-1.88,8.15-2.51,10.34c-.94,2.19,1.25,9.71,4.7,10.34,3.13.31,8.15.94,10.34-.31,2.19-1.57,2.82-4.07,4.07-5.01,1.57-.63,1.57-3.45,1.57-3.45,0,0-1.57-3.76-4.7-5.95-2.82-2.19-6.58-3.13-9.09-4.7-2.51-1.88-4.39-1.25-4.39-1.25h0ZM1027.2,7.01s-4.07,10.03-5.33,13.48c-.94,3.45-9.09,12.22-11.6,17.24-2.19,5.01-4.39,11.6-4.39,11.6,0,0,5.95,0,9.09-1.57,3.13-1.25,5.95-4.39,5.95-4.39,0,0,12.85-1.57,15.67-1.57s12.85-3.13,13.79-8.15c.94-4.7.94-10.34-4.7-15.67-5.64-5.33-5.01-5.64-9.09-7.83-3.76-1.88-9.4-3.13-9.4-3.13h0ZM942.9,104.47s5.33.63,12.54-2.19c7.21-3.13,6.58-6.27,12.22-8.15,5.64-2.19,5.64-2.82,12.53-5.95,7.21-3.13,10.34-3.45,13.16-1.88,3.13,1.57,3.13,3.45.94,5.33-2.19,1.88-18.49,7.83-23.82,11.91-5.33,4.39-9.4,8.15-10.34,14.42-1.25,6.58-.63,11.6,1.25,13.47,1.88,1.88,6.27,2.51,6.89-.31.63-2.51,4.07-7.84,6.89-10.97,2.51-2.82,5.01-4.7,8.15-7.52,3.13-2.51,8.77-3.76,9.09,3.13.31,6.89-3.76,13.16-6.89,16.92-3.13,3.76-11.91,11.91-15.67,14.42-3.76,2.19-11.28.31-17.55.31-6.58,0-15.67-3.13-15.67-3.13,0,0-5.01,2.82-4.07,8.46,1.25,5.64,10.97,11.91,12.53,15.04,1.25,2.82,6.89,5.01,8.77,10.97,1.57,5.95,4.07,14.1,7.52,15.67,3.45,1.88,12.22,1.25,21.62.94s14.42,1.25,17.55-4.7c2.82-5.95,4.07-12.53,4.7-17.24.31-4.7,1.57-9.71,6.27-11.91,4.7-2.19,9.09-2.19,13.79-2.19s10.65-1.57,13.16-2.82c2.82-1.25,4.07-2.82,0-6.89-3.76-4.39-7.21-6.89-10.66-10.34-3.45-3.45-2.51-3.45-7.21-3.13-4.7.63-7.83,1.88-10.66,4.39-3.13,2.51-6.58,4.7-8.15,2.51-1.88-2.19-1.88-8.46.31-13.47,2.19-5.33,5.33-8.77,7.21-11.6,2.19-3.13.63-9.4,1.25-13.79.94-4.39,3.13-11.28,7.52-12.53,4.07-1.25,7.21-8.77,5.95-12.22-1.25-3.45-5.64-7.83-10.03-10.34-4.07-2.51-6.58-4.7-16.61-4.7s-21,1.25-28.2,2.82c-7.21,1.88-26.64,6.89-32.9,9.09-6.58,2.19-11.59,5.95-12.85,11.28-1.57,5.01-4.07,12.85-4.7,19.12-.94,6.58,3.76,12.54,7.21,12.54s9.4-.94,10.97-4.7c1.88-4.07,5.95-10.03,5.95-10.03h0ZM962.64,166.2s6.27-.94,9.4-4.39c3.45-3.13,8.15-2.51,11.6,0,3.45,2.82,3.13,5.33,2.82,7.52-.63,2.19,0,2.82-4.07,5.01-3.76,2.19-5.95,1.88-9.4,1.88s-7.21,0-9.4-3.45c-2.19-3.45-.94-6.58-.94-6.58Z"/>
  <path class="st0" d="M72.69,70.38s-5.64,11.91-2.82,15.98c2.51,4.39,8.15,6.58,6.89,13.47-.94,6.89-1.57,15.04-6.27,15.67-4.7.31-7.21.31-9.4-3.13-1.88-3.76-4.07-11.28-5.64-15.04s-3.13-2.19-3.13-2.19c0,0-2.82,28.2-.63,38.55,1.88,10.65,7.52,6.89,14.1,10.34,6.89,3.13,11.91-1.57,13.79,7.52,1.57,8.77,9.09,26.64,16.92,30.08,7.84,3.76,31.02,3.45,41.99-2.51,11.28-5.64,15.04-10.34,11.28-17.24-3.45-6.58-21.94-1.25-29.46,1.57-7.21,2.51-18.8,3.45-21.31-2.82-.94-1.88-1.25-5.01-.63-6.89,1.57-3.76,6.58-5.33,11.6-7.52,7.21-3.13,14.73-5.33,14.73-10.03s-.94-17.55,2.19-26.95c3.13-9.4,4.07-11.91,10.97-17.86,6.89-5.64,10.03-8.77,8.77-11.91-.94-3.13-7.21-12.85-17.24-19.12-10.03-6.27-16.3-13.48-16.3-13.48,0,0,.63-8.46-1.57-15.67-2.19-7.52-1.57-13.16-9.4-19.12-7.83-5.64-12.54-6.27-12.54-6.27,0,0,5.33,10.66,5.33,14.42,0,4.07-2.82,16.3-5.95,22.88-3.13,6.89-7.21,14.73-11.28,19.74-3.76,5.01-5.01,7.52-5.01,7.52h0ZM108.72,58.47s3.76-2.51,7.52.63c3.76,3.13,4.7,2.19,7.52,6.89,2.82,4.7,3.76,6.27,1.88,13.79-1.88,7.52-6.58,17.86-13.16,18.8-6.58.63-5.95-1.88-6.89-9.09-.63-7.52-.94-21,.31-24.13,1.25-3.13,2.82-6.89,2.82-6.89h0ZM99.64,113.94c0,.31.63-.63.94-1.57.63-1.25.94-1.57,1.57-2.19.94-.31,1.25-1.88,2.82-.31,1.25,1.25-.31.63,1.88,2.19,1.88,1.57.94,1.88,0,2.19-.94.63-7.21-.31-7.21-.31h0ZM104.34,124.28l2.19-.31.63,1.88c.31.63.31,1.88-.31,2.82-.63.63-3.13-.63-3.13-.63-2.82-1.88,1.25-2.19.63-3.76Z"/>
  <path class="st0" d="M261.3,238.12v-.95c1.48,0,2.22-.85,2.22-2.54v-13.49h-2.22v-1.75h2.22c-.53-6.34,1.96-9.47,7.46-9.36,3.49.31,5.35,1.69,5.56,4.12-.11,1.69-1.01,2.54-2.7,2.54-1.37,0-2.17-.74-2.38-2.22,0-.32.16-.79.47-1.43.32-.43.47-.74.47-.96-.1-.42-.53-.68-1.27-.79-1.37,0-2.01,1.06-1.9,3.18v4.92h3.49v1.75h-3.49v12.86c-.32,2.32.79,3.39,3.33,3.17v.95h-11.27Z"/>
  <path class="st0" d="M241.3,228.76c.42-6.03,3.49-9.31,9.2-9.84,5.61.53,8.68,3.81,9.2,9.84-.53,6.24-3.6,9.47-9.2,9.68-5.71-.21-8.78-3.44-9.2-9.68h0ZM247.33,228.76c-.32,6.13.79,9.05,3.33,8.73,2.12.32,3.12-2.59,3.02-8.73.1-6.03-.96-8.88-3.18-8.57-2.33-.22-3.38,2.64-3.18,8.57Z"/>
  <path class="st0" d="M464.12,233.68l.79.79c-2.11,2.54-4.71,3.86-7.77,3.97-5.4-.21-8.31-3.23-8.73-9.05.21-6.35,3.43-9.84,9.68-10.48,3.91.32,5.98,1.8,6.19,4.44-.1,1.69-1,2.54-2.7,2.54-1.69.22-2.43-1.16-2.22-4.12-.11-.95-.69-1.48-1.75-1.59-2.33.1-3.49,2.38-3.49,6.82.11,5.61,2.01,8.57,5.71,8.89,1.69.1,3.12-.64,4.29-2.22Z"/>
  <path class="st0" d="M438.57,213.21c.1-1.9,1.16-2.96,3.17-3.17,1.91.21,2.97,1.27,3.18,3.17-.21,2.01-1.27,3.07-3.18,3.18-2.01-.11-3.07-1.16-3.17-3.18Z"/>
  <path class="st0" d="M446.5,237.17v.95h-9.68v-.95c1.58-.1,2.33-.95,2.22-2.54v-11.9c.11-1.38-.64-2.17-2.22-2.38v-.96h7.77v15.4c-.1,1.58.53,2.38,1.9,2.38Z"/>
  <path class="st0" d="M435.55,237.17v.95h-9.52v-.95c1.27-.1,1.9-.89,1.9-2.38v-9.84c0-2.22-.74-3.34-2.22-3.34-1.27.22-2.38,1.01-3.33,2.38v10.79c-.21,1.58.43,2.38,1.9,2.38v.95h-9.84v-.95c1.59,0,2.33-.85,2.22-2.54v-11.9c.11-1.38-.63-2.17-2.22-2.38v-.96h7.78v2.86h.16c1.27-2.11,3.18-3.22,5.72-3.33,3.49.32,5.29,2.22,5.4,5.72v10.16c-.22,1.58.47,2.38,2.06,2.38Z"/>
  <path class="st0" d="M387.46,237.17v.95h-10.95v-.95c1.59-.1,2.33-.95,2.22-2.54v-11.9c0-1.48-.74-2.27-2.22-2.38v-.96h7.78v3.18c1.69-2.43,3.49-3.65,5.39-3.65,1.91.11,3.02,1.16,3.34,3.18-.11,1.79-.95,2.69-2.54,2.69-.96,0-1.8-.47-2.54-1.43-.43-.63-.8-.95-1.11-.95-1.59.42-2.38,1.69-2.38,3.81v7.78c-.32,2.22.69,3.28,3.01,3.17Z"/>
  <path class="st0" d="M374.29,219.39v1.75h-3.81v12.22c-.11,1.58.42,2.38,1.58,2.38.74.11,1.54-.58,2.38-2.06l.95.32c-1.38,2.85-3.39,4.28-6.03,4.28s-4.29-1.21-4.6-3.65v-13.49h-2.07v-1.11c2.12-1.58,4.39-4.07,6.83-7.45h.95v6.82h3.81Z"/>
  <path class="st0" d="M360.65,233.68l.79.79c-2.11,2.54-4.71,3.86-7.77,3.97-5.4-.21-8.31-3.23-8.73-9.05.21-6.35,3.43-9.84,9.68-10.48,3.91.32,5.98,1.8,6.19,4.44-.1,1.69-1,2.54-2.7,2.54-1.69.22-2.43-1.16-2.22-4.12-.11-.95-.69-1.48-1.75-1.59-2.33.1-3.49,2.38-3.49,6.82.11,5.61,2.01,8.57,5.71,8.89,1.69.1,3.12-.64,4.29-2.22Z"/>
  <path class="st0" d="M325.09,237.17v.95h-9.68v-.95c1.27,0,1.96-.85,2.06-2.54v-20.63c-.1-1.48-.79-2.27-2.06-2.38v-.95h7.77v23.96c-.1,1.8.53,2.65,1.9,2.54Z"/>
  <path class="st0" d="M288.44,211.62v-.95h23.49v8.1h-1.12c-.42-4.77-3.49-6.99-9.2-6.67-2.22-.1-3.22.53-3.01,1.9v9.36c4.12.43,6.35-1.58,6.66-6.03h.95v13.64h-.95c-.42-4.33-2.64-6.4-6.66-6.19v9.84c-.21,1.69.95,2.44,3.49,2.22,5.08.22,8.63-2.17,10.64-7.14h1.11l-1.59,8.41h-23.8v-.95c2.64,0,3.86-1,3.65-3.01v-19.52c.1-2.01-1.11-3.01-3.65-3.01Z"/>
  <path class="st0" d="M342.4,233.05l.95.64c-2.33,3.28-5.02,4.86-8.1,4.76-5.39-.21-8.15-3.44-8.25-9.68.32-6.03,3.12-9.31,8.41-9.84,4.76.11,7.35,3.18,7.77,9.2h-10.31c.21,5.08,1.85,7.62,4.92,7.62,1.59.11,3.12-.79,4.6-2.7h0ZM332.71,226.69h5.4c0-2.11-.1-3.65-.32-4.6-.42-1.27-1.16-1.9-2.22-1.9-2.01-.11-2.96,2.06-2.86,6.5Z"/>
  <path class="st0" d="M394.29,228.76c.42-6.03,3.49-9.31,9.2-9.84,5.61.53,8.68,3.81,9.2,9.84-.53,6.24-3.6,9.47-9.2,9.68-5.71-.21-8.78-3.44-9.2-9.68h0ZM400.32,228.76c-.32,6.13.79,9.05,3.33,8.73,2.12.32,3.12-2.59,3.02-8.73.1-6.03-.96-8.88-3.18-8.57-2.33-.22-3.38,2.64-3.18,8.57Z"/>
  <path class="st0" d="M655.43,237.17v.95h-9.52v-.95c1.27-.1,1.9-.89,1.9-2.38v-9.84c0-2.22-.74-3.34-2.22-3.34-1.27.22-2.38,1.01-3.33,2.38v10.79c-.21,1.58.43,2.38,1.9,2.38v.95h-9.84v-.95c1.59,0,2.33-.85,2.22-2.54v-11.9c.11-1.38-.63-2.17-2.22-2.38v-.96h7.78v2.86h.16c1.27-2.11,3.18-3.22,5.72-3.33,3.49.32,5.29,2.22,5.4,5.72v10.16c-.22,1.58.47,2.38,2.06,2.38Z"/>
  <path class="st0" d="M632.42,235.59l.64.79c-1.37,1.27-2.86,1.96-4.45,2.07-2.11,0-3.28-.85-3.49-2.54-1.9,1.48-4.02,2.33-6.35,2.54-3.07-.21-4.6-1.59-4.6-4.13-.32-2.96,3.33-5.5,10.95-7.62v-2.85c.1-2.44-1.05-3.65-3.49-3.65-1.48.1-2.28.58-2.38,1.42,0,.32.1.69.32,1.12.42.63.68,1.21.79,1.74-.32,1.48-1.22,2.22-2.7,2.22-1.79,0-2.7-.89-2.7-2.69.32-3.18,2.86-4.87,7.62-5.08,5.18.21,7.88,2.07,8.09,5.55v10.64c0,.63.32.95.95.95.1.11.26.05.47-.16l.32-.32h0ZM625.12,234v-5.88c-3.28,1.06-4.92,2.7-4.92,4.92,0,1.8.69,2.7,2.07,2.7.74,0,1.58-.47,2.54-1.43.11-.1.21-.21.32-.31Z"/>
  <path class="st0" d="M677.81,236.38v.95c-1.06.21-1.9.32-2.54.32-2.33.32-4.12.53-5.4.63v-2.22c-1.59,1.59-3.49,2.38-5.72,2.38-4.55-.43-6.93-3.44-7.14-9.05.21-6.35,2.86-9.84,7.94-10.48,1.69,0,3.28.85,4.76,2.54v-7.46c.21-1.69-.8-2.49-3.02-2.38v-.95h8.73v23.33c-.21,1.58.58,2.38,2.38,2.38h0ZM669.72,233.52v-9.84c-.85-1.58-1.91-2.43-3.18-2.54-2.43,0-3.59,2.54-3.49,7.62-.1,5.19,1.01,7.73,3.33,7.62,1.38-.1,2.49-1.06,3.34-2.86Z"/>
  <path class="st0" d="M888.41,219.39v.96c-.21.11-.26.16-.16.16-1.06-.1-1.79.58-2.22,2.06l-6.03,15.87c-1.27,3.39-2.28,5.4-3.02,6.03-.85,1.06-2.06,1.59-3.65,1.59-2.32-.11-3.6-1.11-3.81-3.01.1-1.8,1-2.7,2.69-2.7,1.37,0,2.12.69,2.22,2.07v.79c0,.32.22.53.64.64.95-.11,1.86-1.22,2.7-3.33l.63-2.23-4.76-11.59c-.42-.74-1-1.9-1.75-3.49-.42-.85-.63-1.43-.63-1.75-.32-.53-.9-.85-1.75-.95v-1.11h10.16v.96c-.21.11-.37.16-.48.16-1.16.11-1.69.43-1.59.95,0,.64.27,1.43.79,2.38l2.86,7.45,2.7-7.77c.31-.64.47-1.22.47-1.75,0-1.06-.74-1.54-2.22-1.43v-.96h6.19Z"/>
  <path class="st0" d="M827.3,237.17v.95h-9.68v-.95c1.27,0,1.96-.85,2.06-2.54v-20.63c-.1-1.48-.79-2.27-2.06-2.38v-.95h7.77v23.96c-.1,1.8.53,2.65,1.9,2.54Z"/>
  <path class="st0" d="M796.04,237.17v.95h-9.52v-.95c1.27-.1,1.9-.89,1.9-2.38v-9.84c0-2.22-.74-3.34-2.22-3.34-1.27.22-2.38,1.01-3.33,2.38v10.79c-.21,1.58.43,2.38,1.9,2.38v.95h-9.84v-.95c1.59,0,2.33-.85,2.22-2.54v-11.9c.11-1.38-.63-2.17-2.22-2.38v-.96h7.78v2.86h.16c1.27-2.11,3.18-3.22,5.72-3.33,3.49.32,5.29,2.22,5.4,5.72v10.16c-.22,1.58.47,2.38,2.06,2.38Z"/>
  <path class="st0" d="M773.35,237.17v.95h-9.52v-.95c1.27-.1,1.9-.89,1.9-2.38v-9.84c0-2.12-.79-3.23-2.38-3.34-1.27.22-2.38,1.01-3.33,2.38v10.79c-.1,1.58.58,2.38,2.06,2.38v.95h-9.84v-.95c1.58-.1,2.33-.95,2.22-2.54v-20.63c.11-1.48-.64-2.27-2.22-2.38v-.95h7.77v11.43c1.9-2.12,3.87-3.18,5.87-3.18,3.49.32,5.3,2.22,5.4,5.72v9.99c-.1,1.8.58,2.65,2.07,2.54Z"/>
  <path class="st0" d="M750.34,233.68l.79.79c-2.11,2.54-4.71,3.86-7.77,3.97-5.4-.21-8.31-3.23-8.73-9.05.21-6.35,3.43-9.84,9.68-10.48,3.91.32,5.98,1.8,6.19,4.44-.1,1.69-1,2.54-2.7,2.54-1.69.22-2.43-1.16-2.22-4.12-.11-.95-.69-1.48-1.75-1.59-2.33.1-3.49,2.38-3.49,6.82.11,5.61,2.01,8.57,5.71,8.89,1.69.1,3.12-.64,4.29-2.22Z"/>
  <path class="st0" d="M709.55,237.17v.95h-14.44v-.95c2.96.22,4.28-1.06,3.96-3.8v-21.43c-4.86,0-7.51,2.27-7.93,6.83h-1.11l.16-8.1h24.28l.16,8.1h-1.27c-.53-4.66-3.12-6.93-7.78-6.83v21.43c-.42,2.75.9,4.02,3.97,3.8Z"/>
  <path class="st0" d="M732.09,233.05l.95.64c-2.33,3.28-5.02,4.86-8.1,4.76-5.39-.21-8.15-3.44-8.25-9.68.32-6.03,3.12-9.31,8.41-9.84,4.76.11,7.35,3.18,7.77,9.2h-10.31c.21,5.08,1.85,7.62,4.92,7.62,1.59.11,3.12-.79,4.6-2.7h0ZM722.4,226.69h5.4c0-2.11-.1-3.65-.32-4.6-.42-1.27-1.16-1.9-2.22-1.9-2.01-.11-2.96,2.06-2.86,6.5Z"/>
  <path class="st0" d="M797.63,228.76c.42-6.03,3.49-9.31,9.2-9.84,5.61.53,8.68,3.81,9.2,9.84-.53,6.24-3.6,9.47-9.2,9.68-5.71-.21-8.78-3.44-9.2-9.68h0ZM803.66,228.76c-.32,6.13.79,9.05,3.33,8.73,2.12.32,3.12-2.59,3.02-8.73.1-6.03-.96-8.88-3.18-8.57-2.33-.22-3.38,2.64-3.18,8.57Z"/>
  <path class="st0" d="M829.21,228.76c.42-6.03,3.49-9.31,9.2-9.84,5.61.53,8.68,3.81,9.2,9.84-.53,6.24-3.6,9.47-9.2,9.68-5.71-.21-8.78-3.44-9.2-9.68h0ZM835.24,228.76c-.32,6.13.79,9.05,3.33,8.73,2.12.32,3.12-2.59,3.02-8.73.1-6.03-.96-8.88-3.18-8.57-2.33-.22-3.38,2.64-3.18,8.57Z"/>
  <path class="st0" d="M868.1,221.93h-3.18c0,.11.05.22.16.32.95,1.06,1.42,2.27,1.42,3.65-.1,2.76-1.53,4.6-4.28,5.56-.32.42-2.01.58-5.08.47-1.48.32-2.27.96-2.38,1.9-.42,1.16.95,1.69,4.12,1.59h2.7c4.34.21,6.56,1.74,6.66,4.6-.1,4.02-3.59,6.09-10.48,6.19-5.29-.1-7.98-1.37-8.09-3.81,0-1.69,1.27-2.7,3.81-3.02-2.23-.63-3.28-1.69-3.18-3.17.1-2.01,1.69-3.55,4.76-4.6-3.39-1.27-5.08-3.33-5.08-6.19.32-4.12,3.12-6.3,8.41-6.51,1.59,0,3.07.32,4.44.96h5.24v2.06h0ZM855.72,225.43c-.22,3.7.63,5.45,2.54,5.23,1.9.11,2.8-1.64,2.69-5.23,0-3.49-.9-5.24-2.69-5.24-1.91,0-2.76,1.74-2.54,5.24h0ZM861.75,239.87h-6.98c-1.06.74-1.53,1.53-1.43,2.38,0,1.59,1.64,2.49,4.92,2.7,4.33,0,6.55-1.01,6.66-3.02-.11-1.48-1.16-2.17-3.18-2.06Z"/>
  <path class="st0" d="M920.31,238.12v-.95c1.48,0,2.22-.85,2.22-2.54v-13.49h-2.22v-1.75h2.22c-.53-6.34,1.96-9.47,7.46-9.36,3.49.31,5.35,1.69,5.56,4.12-.11,1.69-1.01,2.54-2.7,2.54-1.37,0-2.17-.74-2.38-2.22,0-.32.16-.79.47-1.43.32-.43.47-.74.47-.96-.1-.42-.53-.68-1.27-.79-1.37,0-2.01,1.06-1.9,3.18v4.92h3.49v1.75h-3.49v12.86c-.32,2.32.79,3.39,3.33,3.17v.95h-11.27Z"/>
  <path class="st0" d="M900.32,228.76c.42-6.03,3.49-9.31,9.2-9.84,5.61.53,8.68,3.81,9.2,9.84-.53,6.24-3.6,9.47-9.2,9.68-5.71-.21-8.78-3.44-9.2-9.68h0ZM906.34,228.76c-.32,6.13.79,9.05,3.33,8.73,2.12.32,3.12-2.59,3.02-8.73.1-6.03-.96-8.88-3.18-8.57-2.33-.22-3.38,2.64-3.18,8.57Z"/>
  <path class="st0" d="M1030.38,237.17v.95h-9.52v-.95c1.27-.1,1.9-.89,1.9-2.38v-9.84c0-2.22-.74-3.34-2.22-3.34-1.27.22-2.38,1.01-3.33,2.38v10.79c-.21,1.58.43,2.38,1.9,2.38v.95h-9.84v-.95c1.59,0,2.33-.85,2.22-2.54v-11.9c.11-1.38-.63-2.17-2.22-2.38v-.96h7.78v2.86h.16c1.27-2.11,3.18-3.22,5.72-3.33,3.49.32,5.29,2.22,5.4,5.72v10.16c-.22,1.58.47,2.38,2.06,2.38Z"/>
  <path class="st0" d="M999.59,213.21c.1-1.9,1.16-2.96,3.17-3.17,1.91.21,2.97,1.27,3.18,3.17-.21,2.01-1.27,3.07-3.18,3.18-2.01-.11-3.07-1.16-3.17-3.18Z"/>
  <path class="st0" d="M1007.52,237.17v.95h-9.68v-.95c1.58-.1,2.33-.95,2.22-2.54v-11.9c.11-1.38-.64-2.17-2.22-2.38v-.96h7.77v15.4c-.1,1.58.53,2.38,1.9,2.38Z"/>
  <path class="st0" d="M996.42,237.17v.95h-9.52v-.95c1.27-.1,1.9-.89,1.9-2.38v-9.84c0-2.12-.79-3.23-2.38-3.34-1.27.22-2.38,1.01-3.33,2.38v10.79c-.1,1.58.58,2.38,2.06,2.38v.95h-9.84v-.95c1.58-.1,2.33-.95,2.22-2.54v-20.63c.11-1.48-.64-2.27-2.22-2.38v-.95h7.77v11.43c1.9-2.12,3.87-3.18,5.87-3.18,3.49.32,5.3,2.22,5.4,5.72v9.99c-.1,1.8.58,2.65,2.07,2.54Z"/>
  <path class="st0" d="M972.13,231.94l1.27.96c-3.39,3.81-7.19,5.71-11.42,5.71-9.1-.32-13.92-4.97-14.44-13.96.53-9.1,5.29-13.97,14.28-14.6,1.48.1,3.49.63,6.03,1.58.95.32,1.58.47,1.9.47.74.11,1.32-.53,1.75-1.9h1.11v9.52h-.95c-2.54-5.29-5.72-8.04-9.52-8.25-4.97.11-7.46,4.45-7.46,13.01-.1,4.13.48,7.09,1.75,8.89,1.27,2.33,3.33,3.54,6.19,3.65,3.28.11,6.45-1.59,9.53-5.08Z"/>
  <path class="st0" d="M1050.22,235.59l.64.79c-1.37,1.27-2.86,1.96-4.45,2.07-2.11,0-3.28-.85-3.49-2.54-1.9,1.48-4.02,2.33-6.35,2.54-3.07-.21-4.6-1.59-4.6-4.13-.32-2.96,3.33-5.5,10.95-7.62v-2.85c.1-2.44-1.06-3.65-3.49-3.65-1.48.1-2.28.58-2.38,1.42,0,.32.1.69.32,1.12.42.63.68,1.21.79,1.74-.32,1.48-1.22,2.22-2.7,2.22-1.79,0-2.7-.89-2.7-2.69.32-3.18,2.86-4.87,7.62-5.08,5.18.21,7.88,2.07,8.09,5.55v10.64c0,.63.32.95.95.95.1.11.26.05.47-.16l.32-.32h0ZM1042.92,234v-5.88c-3.28,1.06-4.92,2.7-4.92,4.92,0,1.8.69,2.7,2.07,2.7.74,0,1.58-.47,2.54-1.43.11-.1.21-.21.32-.31Z"/>
  <path class="st0" d="M583.86,233.68l.79.79c-2.11,2.54-4.71,3.86-7.77,3.97-5.4-.21-8.31-3.23-8.73-9.05.21-6.35,3.43-9.84,9.68-10.48,3.92.32,5.98,1.8,6.19,4.44-.1,1.69-1,2.54-2.7,2.54-1.69.22-2.43-1.16-2.22-4.12-.11-.95-.69-1.48-1.75-1.59-2.33.1-3.49,2.38-3.49,6.82.11,5.61,2.01,8.57,5.71,8.89,1.69.1,3.12-.64,4.29-2.22Z"/>
  <path class="st0" d="M566.56,237.17v.95h-9.52v-.95c1.27-.1,1.9-.89,1.9-2.38v-9.84c0-2.22-.74-3.34-2.22-3.34-1.27.22-2.38,1.01-3.33,2.38v10.79c-.21,1.58.43,2.38,1.9,2.38v.95h-9.84v-.95c1.59,0,2.33-.85,2.22-2.54v-11.9c.11-1.38-.63-2.17-2.22-2.38v-.96h7.78v2.86h.16c1.27-2.11,3.18-3.22,5.72-3.33,3.49.32,5.29,2.22,5.4,5.72v10.16c-.22,1.58.47,2.38,2.06,2.38Z"/>
  <path class="st0" d="M517.84,213.21c.1-1.9,1.16-2.96,3.17-3.17,1.91.21,2.97,1.27,3.18,3.17-.21,2.01-1.27,3.07-3.18,3.18-2.01-.11-3.07-1.16-3.17-3.18Z"/>
  <path class="st0" d="M525.77,237.17v.95h-9.68v-.95c1.58-.1,2.33-.95,2.22-2.54v-11.9c.11-1.38-.64-2.17-2.22-2.38v-.96h7.77v15.4c-.1,1.58.53,2.38,1.9,2.38Z"/>
  <path class="st0" d="M514.19,233.68l.79.79c-2.11,2.54-4.71,3.86-7.77,3.97-5.4-.21-8.31-3.23-8.73-9.05.21-6.35,3.43-9.84,9.68-10.48,3.91.32,5.98,1.8,6.19,4.44-.1,1.69-1,2.54-2.7,2.54-1.69.22-2.43-1.16-2.22-4.12-.11-.95-.69-1.48-1.75-1.59-2.33.1-3.49,2.38-3.49,6.82.11,5.61,2.01,8.57,5.71,8.89,1.69.1,3.12-.64,4.29-2.22Z"/>
  <path class="st0" d="M494.67,218.77h-1.11c-1.58-4.77-4.23-7.25-7.94-7.46-2.86.21-4.33,1.48-4.44,3.81-.32,1.9,1.11,3.54,4.29,4.92l5.87,2.86c2.86,1.8,4.34,4.29,4.44,7.46-.53,5.29-3.86,8.04-9.99,8.25-1.69,0-3.49-.21-5.4-.63-.64-.22-1.16-.37-1.58-.48-.75,0-1.16.37-1.27,1.11h-1.11v-9.68h1.11c1.37,5.71,4.18,8.57,8.41,8.57,3.07,0,4.76-1.48,5.08-4.44.11-2.12-1.43-3.76-4.6-4.92l-2.7-1.43c-4.97-2.22-7.3-5.08-6.98-8.56.32-5.29,3.33-7.99,9.05-8.09,1.27,0,2.75.31,4.44.95.85.32,1.48.47,1.9.47.64.11,1.06-.37,1.27-1.42h1.27v8.73Z"/>
  <path class="st0" d="M543.07,233.05l.95.64c-2.33,3.28-5.02,4.86-8.1,4.76-5.39-.21-8.15-3.44-8.25-9.68.32-6.03,3.12-9.31,8.41-9.84,4.76.11,7.35,3.18,7.77,9.2h-10.31c.21,5.08,1.85,7.62,4.92,7.62,1.59.11,3.12-.79,4.61-2.7h0ZM533.39,226.69h5.4c0-2.11-.1-3.65-.32-4.6-.42-1.27-1.16-1.9-2.22-1.9-2.01-.11-2.96,2.06-2.86,6.5Z"/>
  <path class="st0" d="M601.47,233.05l.95.64c-2.33,3.28-5.02,4.86-8.1,4.76-5.39-.21-8.15-3.44-8.25-9.68.32-6.03,3.12-9.31,8.41-9.84,4.76.11,7.35,3.18,7.77,9.2h-10.31c.21,5.08,1.85,7.62,4.92,7.62,1.59.11,3.12-.79,4.61-2.7h0ZM591.79,226.69h5.4c0-2.11-.1-3.65-.32-4.6-.42-1.27-1.16-1.9-2.22-1.9-2.01-.11-2.96,2.06-2.86,6.5Z"/>
  <path class="st0" d="M229.4,219.39v.96c-.21.11-.26.16-.16.16-1.06-.1-1.79.58-2.22,2.06l-6.03,15.87c-1.27,3.39-2.28,5.4-3.02,6.03-.85,1.06-2.06,1.59-3.65,1.59-2.32-.11-3.6-1.11-3.81-3.01.1-1.8,1-2.7,2.69-2.7,1.37,0,2.12.69,2.22,2.07v.79c0,.32.22.53.64.64.95-.11,1.86-1.22,2.7-3.33l.63-2.23-4.76-11.59c-.42-.74-1-1.9-1.75-3.49-.42-.85-.63-1.43-.63-1.75-.32-.53-.9-.85-1.75-.95v-1.11h10.16v.96c-.21.11-.37.16-.48.16-1.16.11-1.69.43-1.59.95,0,.64.27,1.43.79,2.38l2.86,7.45,2.7-7.77c.31-.64.47-1.22.47-1.75,0-1.06-.74-1.54-2.22-1.43v-.96h6.19Z"/>
  <path class="st0" d="M208.77,219.39v1.75h-3.81v12.22c-.11,1.58.42,2.38,1.58,2.38.74.11,1.54-.58,2.38-2.06l.95.32c-1.38,2.85-3.39,4.28-6.03,4.28s-4.29-1.21-4.61-3.65v-13.49h-2.06v-1.11c2.12-1.58,4.39-4.07,6.83-7.45h.95v6.82h3.81Z"/>
  <path class="st0" d="M187.5,213.21c.1-1.9,1.16-2.96,3.17-3.17,1.91.21,2.97,1.27,3.18,3.17-.21,2.01-1.27,3.07-3.18,3.18-2.01-.11-3.07-1.16-3.17-3.18Z"/>
  <path class="st0" d="M195.43,237.17v.95h-9.68v-.95c1.58-.1,2.33-.95,2.22-2.54v-11.9c.11-1.38-.64-2.17-2.22-2.38v-.96h7.77v15.4c-.1,1.58.53,2.38,1.9,2.38Z"/>
  <path class="st0" d="M183.22,224.95h-.96c-1.06-3.07-2.75-4.66-5.08-4.76-1.58.21-2.43,1-2.54,2.38,0,1.27,1.27,2.49,3.81,3.65,3.7,1.69,5.55,3.76,5.55,6.19-.21,3.81-2.32,5.82-6.35,6.03-1.06,0-2.54-.21-4.44-.64-.43-.21-.64-.32-.64-.32-.53,0-.9.27-1.11.79h-1.11v-6.35h1.27c.64,3.6,2.54,5.4,5.72,5.4,1.69,0,2.65-.9,2.86-2.7,0-1.06-1.37-2.22-4.13-3.49-3.7-1.8-5.55-3.87-5.55-6.19.21-3.7,2.38-5.72,6.51-6.03.74.11,1.69.32,2.86.64.74.21,1.22.32,1.43.32.53,0,.85-.32.95-.96h.96v6.03Z"/>
  <path class="st0" d="M163.54,237.17v.95h-10.95v-.95c1.59-.1,2.33-.95,2.22-2.54v-11.9c0-1.48-.74-2.27-2.22-2.38v-.96h7.78v3.18c1.69-2.43,3.49-3.65,5.39-3.65,1.91.11,3.02,1.16,3.34,3.18-.11,1.79-.95,2.69-2.54,2.69-.96,0-1.8-.47-2.54-1.43-.43-.63-.8-.95-1.11-.95-1.59.42-2.39,1.69-2.39,3.81v7.78c-.32,2.22.69,3.28,3.01,3.17Z"/>
  <path class="st0" d="M132.91,219.39v.96c-.21.11-.26.16-.16.16-1.06-.1-1.8.58-2.22,2.06l-6.51,15.87h-.95l-4.92-11.75c-1.38-3.07-2.17-4.81-2.38-5.23-.32-.74-.9-1.11-1.75-1.11v-.96h10.16v.96c-.21.11-.37.16-.47.16-1.16,0-1.69.32-1.58.95-.11.21,0,.64.31,1.27l3.18,8.25,3.01-7.45c.32-.64.48-1.22.48-1.75,0-.95-.74-1.43-2.22-1.43v-.96h6.03Z"/>
  <path class="st0" d="M104.34,213.21c.1-1.9,1.16-2.96,3.17-3.17,1.91.21,2.97,1.27,3.18,3.17-.21,2.01-1.27,3.07-3.18,3.18-2.01-.11-3.07-1.16-3.17-3.18Z"/>
  <path class="st0" d="M112.27,237.17v.95h-9.68v-.95c1.58-.1,2.33-.95,2.22-2.54v-11.9c.11-1.38-.64-2.17-2.22-2.38v-.96h7.77v15.4c-.1,1.58.53,2.38,1.9,2.38Z"/>
  <path class="st0" d="M101.32,237.17v.95h-9.52v-.95c1.27-.1,1.9-.89,1.9-2.38v-9.84c0-2.22-.74-3.34-2.22-3.34-1.27.22-2.38,1.01-3.33,2.38v10.79c-.21,1.58.43,2.38,1.9,2.38v.95h-9.84v-.95c1.59,0,2.33-.85,2.22-2.54v-11.9c.11-1.38-.63-2.17-2.22-2.38v-.96h7.78v2.86h.16c1.27-2.11,3.18-3.22,5.72-3.33,3.49.32,5.29,2.22,5.4,5.72v10.16c-.22,1.58.47,2.38,2.06,2.38Z"/>
  <path class="st0" d="M78.62,210.67v.95c-2.32.11-3.39,1.27-3.17,3.49v13.01c-.11,3.7-.85,6.3-2.23,7.78-1.79,1.69-4.44,2.59-7.93,2.7-3.6-.1-6.35-.85-8.26-2.22-2.01-1.48-2.97-3.97-2.86-7.45v-13.49c.21-2.54-.9-3.81-3.33-3.81v-.95h13.81v.95c-2.97-.21-4.29,1.06-3.97,3.81v13.49c-.21,5.39,1.75,8.04,5.87,7.93,4.87,0,7.25-2.91,7.14-8.73v-12.38c.21-2.75-1.11-4.12-3.97-4.12v-.95h8.88Z"/>
  <path class="st0" d="M149.89,233.05l.95.64c-2.33,3.28-5.02,4.86-8.1,4.76-5.39-.21-8.15-3.44-8.25-9.68.32-6.03,3.12-9.31,8.41-9.84,4.76.11,7.35,3.18,7.77,9.2h-10.31c.21,5.08,1.85,7.62,4.92,7.62,1.59.11,3.12-.79,4.6-2.7h0ZM140.21,226.69h5.4c0-2.11-.1-3.65-.32-4.6-.42-1.27-1.16-1.9-2.22-1.9-2.01-.11-2.96,2.06-2.86,6.5Z"/>
</svg>